<svg width="22" height="21" viewBox="0 0 22 21" fill="none" xmlns="http://www.w3.org/2000/svg">
<path fill-rule="evenodd" clip-rule="evenodd" d="M9.625 18.3333C9.26033 18.3333 8.91059 18.1885 8.65273 17.9306C8.39486 17.6727 8.25 17.323 8.25 16.9583V14.6667C8.25 14.1604 7.83959 13.75 7.33333 13.75C6.82707 13.75 6.41667 14.1604 6.41667 14.6667V16.9583C6.41667 17.8092 6.75469 18.6253 7.35637 19.227C7.95804 19.8287 8.7741 20.1667 9.625 20.1667H18.7917C19.6426 20.1667 20.4586 19.8287 21.0603 19.227C21.662 18.6253 22 17.8092 22 16.9583V3.20834C22 2.35744 21.662 1.54138 21.0603 0.939705C20.4586 0.338026 19.6426 5.72205e-06 18.7917 5.72205e-06H10.0833C9.22258 5.72205e-06 8.33994 0.340178 7.66839 0.866356C7.00033 1.38979 6.41667 2.20295 6.41667 3.20834V5.50001C6.41667 6.00627 6.82707 6.41667 7.33333 6.41667C7.83959 6.41667 8.25 6.00627 8.25 5.50001V3.20834C8.25 2.94816 8.40855 2.61548 8.7991 2.30948C9.18615 2.00621 9.67851 1.83334 10.0833 1.83334H18.7917C19.1563 1.83334 19.5061 1.9782 19.7639 2.23607C20.0218 2.49393 20.1667 2.84367 20.1667 3.20834V16.9583C20.1667 17.323 20.0218 17.6727 19.7639 17.9306C19.5061 18.1885 19.1563 18.3333 18.7917 18.3333H9.625Z" fill="#E6E6E6"/>
<path fill-rule="evenodd" clip-rule="evenodd" d="M12.1852 15.3149C12.5431 15.6728 13.1235 15.6728 13.4815 15.3149L18.0648 10.7315C18.4228 10.3735 18.4228 9.79314 18.0648 9.43516L13.4815 4.85183C13.1235 4.49385 12.5431 4.49385 12.1852 4.85183C11.8272 5.20981 11.8272 5.79021 12.1852 6.14819L15.2036 9.16668H0.916667C0.410406 9.16668 0 9.57708 0 10.0833C0 10.5896 0.410406 11 0.916667 11H15.2036L12.1852 14.0185C11.8272 14.3765 11.8272 14.9569 12.1852 15.3149Z" fill="#E6E6E6"/>
</svg>
